# xmcd
#
# Track frame offsets: 
#        150
#        12539
#        24074
#        35144
#        45502
#        59003
#        69553
#        80461
#        91104
#        100791
#
# Disc length: 1510 seconds
#
# Revision: 0
# Processed by: cddbd v1.5.2PL0 Copyright (c) Steve Scherf et al.
# Submitted via: ExactAudioCopy v1.0b1
#
DISCID=7705e40a
DTITLE=Hank Thompson - Best Of The Best
DYEAR=2003
DGENRE=Country
TTITLE0=Wild Side Of Life
TTITLE1=Smoky The Bar
TTITLE2=On Tap, In The Can Or In The Bottle
TTITLE3=Grren Light
TTITLE4=Yesterday's Girl
TTITLE5=The Older The V iolin, The Sweeter The Music
TTITLE6=Oklahoma Hills
TTITLE7=Honky Tonk Girl
TTITLE8=A Six Pack To Go
TTITLE9=Anybody's Girl
EXTD=
EXTT0=
EXTT1=
EXTT2=
EXTT3=
EXTT4=
EXTT5=
EXTT6=
EXTT7=
EXTT8=
EXTT9=
PLAYORDER=
